{"asset": {"version": "2.0", "generator": ""}, "scenes": [{"nodes": [0]}], "bufferViews": [{"buffer": 0, "byteOffset": 0, "byteLength": 2688, "target": 34963}, {"buffer": 0, "byteOffset": 2688, "byteLength": 43008, "target": 34962, "byteStride": 32}, {"buffer": 1, "byteOffset": 0, "byteLength": 2688, "target": 34963}, {"buffer": 1, "byteOffset": 2688, "byteLength": 43008, "target": 34962, "byteStride": 32}, {"buffer": 2, "byteOffset": 0, "byteLength": 7344, "target": 34963}, {"buffer": 2, "byteOffset": 7344, "byteLength": 117504, "target": 34962, "byteStride": 32}, {"buffer": 3, "byteOffset": 0, "byteLength": 1728, "target": 34963}, {"buffer": 3, "byteOffset": 1728, "byteLength": 27648, "target": 34962, "byteStride": 32}, {"buffer": 4, "byteOffset": 0, "byteLength": 1728, "target": 34963}, {"buffer": 4, "byteOffset": 1728, "byteLength": 27648, "target": 34962, "byteStride": 32}, {"buffer": 5, "byteOffset": 0, "byteLength": 144, "target": 34963}, {"buffer": 5, "byteOffset": 144, "byteLength": 2304, "target": 34962, "byteStride": 32}, {"buffer": 6, "byteOffset": 0, "byteLength": 16128, "target": 34963}, {"buffer": 6, "byteOffset": 16128, "byteLength": 258048, "target": 34962, "byteStride": 32}, {"buffer": 7, "byteOffset": 0, "byteLength": 327696, "target": 34963}, {"buffer": 7, "byteOffset": 327696, "byteLength": 2621568, "target": 34962, "byteStride": 32}, {"buffer": 8, "byteOffset": 0, "byteLength": 3240, "target": 34963}, {"buffer": 8, "byteOffset": 3240, "byteLength": 51840, "target": 34962, "byteStride": 32}, {"buffer": 9, "byteOffset": 0, "byteLength": 738936, "target": 34963}, {"buffer": 9, "byteOffset": 738936, "byteLength": 5911488, "target": 34962, "byteStride": 32}], "nodes": [{"name": "gb", "translation": [-0.004404500126838684, 3.557569742202759, -0.5335630178451538], "rotation": [0.0, 0.0, 0.0, -1.0], "scale": [1.0, 1.0, 1.0], "children": [1, 2, 3, 4, 5, 6, 7, 8, 9]}, {"name": "body", "translation": [0.004404500126838684, -3.557569742202759, 0.13185149431228638], "rotation": [0.0, 0.0, 0.0, -1.0], "scale": [1.0, 1.0, 1.0], "children": [10, 11]}, {"name": "reset", "mesh": 0, "translation": [2.7519280910491943, -23.11994171142578, 5.516624927520752], "rotation": [0.0, 0.0, 0.0, -1.0], "scale": [1.0, 1.0, 1.0]}, {"name": "power", "mesh": 1, "translation": [-2.56428599357605, -23.25936508178711, 5.577178001403809], "rotation": [0.0, 0.0, 0.0, -1.0], "scale": [1.0, 1.0, 1.0]}, {"name": "joystick", "mesh": 2, "translation": [10.303840637207031, -12.951628684997559, 6.143094539642334], "rotation": [0.0, 0.0, 0.0, -1.0], "scale": [1.0, 1.0, 1.0]}, {"name": "B", "mesh": 3, "translation": [-6.264028072357178, -14.317620277404785, 5.78849458694458], "rotation": [0.0, 0.0, 0.0, -1.0], "scale": [1.0, 1.0, 1.0]}, {"name": "A", "mesh": 4, "translation": [-12.933874130249023, -12.294703483581543, 5.6176910400390625], "rotation": [0.0, 0.0, 0.0, -1.0], "scale": [1.0, 1.0, 1.0]}, {"name": "screen", "mesh": 5, "translation": [0.004404500126838684, -3.557569742202759, 0.5335630178451538], "rotation": [0.0, 0.0, 0.0, -1.0], "scale": [1.0, 1.0, 1.0]}, {"name": "glass", "mesh": 6, "translation": [0.004404500126838684, -3.557569742202759, 0.5335630178451538], "rotation": [0.0, 0.0, 0.0, -1.0], "scale": [1.0, 1.0, 1.0]}, {"name": "casette", "mesh": 7, "translation": [-0.013213500380516052, 10.672708511352539, -1.6006890535354614], "rotation": [0.0, 0.0, 0.0, -1.0], "scale": [1.0, 1.0, 1.0]}, {"name": "body-light", "mesh": 8}, {"name": "body-body", "mesh": 9}], "meshes": [{"name": "reset", "primitives": [{"attributes": {"POSITION": 1, "NORMAL": 2, "TEXCOORD_0": 3}, "indices": 0, "material": 0}]}, {"name": "power", "primitives": [{"attributes": {"POSITION": 5, "NORMAL": 6, "TEXCOORD_0": 7}, "indices": 4, "material": 0}]}, {"name": "joystick", "primitives": [{"attributes": {"POSITION": 9, "NORMAL": 10, "TEXCOORD_0": 11}, "indices": 8, "material": 0}]}, {"name": "B", "primitives": [{"attributes": {"POSITION": 13, "NORMAL": 14, "TEXCOORD_0": 15}, "indices": 12, "material": 1}]}, {"name": "A", "primitives": [{"attributes": {"POSITION": 17, "NORMAL": 18, "TEXCOORD_0": 19}, "indices": 16, "material": 2}]}, {"name": "screen", "primitives": [{"attributes": {"POSITION": 21, "NORMAL": 22, "TEXCOORD_0": 23}, "indices": 20, "material": 3}]}, {"name": "glass", "primitives": [{"attributes": {"POSITION": 25, "NORMAL": 26, "TEXCOORD_0": 27}, "indices": 24, "material": 4}]}, {"name": "casette", "primitives": [{"attributes": {"POSITION": 29, "NORMAL": 30, "TEXCOORD_0": 31}, "indices": 28, "material": 5}]}, {"name": "body-light", "primitives": [{"attributes": {"POSITION": 33, "NORMAL": 34, "TEXCOORD_0": 35}, "indices": 32, "material": 6}]}, {"name": "body-body", "primitives": [{"attributes": {"POSITION": 37, "NORMAL": 38, "TEXCOORD_0": 39}, "indices": 36, "material": 7}]}], "accessors": [{"bufferView": 0, "type": "SCALAR", "componentType": 5123, "count": 1344, "byteOffset": 0, "min": [0], "max": [1343]}, {"bufferView": 1, "type": "VEC3", "componentType": 5126, "count": 1344, "byteOffset": 0, "min": [-2.0814435482025146, -1.2737189531326294, -1.2130035161972046], "max": [2.0814435482025146, 1.2737189531326294, 1.2130035161972046]}, {"bufferView": 1, "type": "VEC3", "componentType": 5126, "count": 1344, "byteOffset": 12, "min": [-1.0, -1.0, -1.0], "max": [1.0, 1.0, 1.0]}, {"bufferView": 1, "type": "VEC2", "componentType": 5126, "count": 1344, "byteOffset": 24, "min": [0.05580500140786171, 0.3105120062828064], "max": [0.3686850070953369, 0.7759969234466553]}, {"bufferView": 2, "type": "SCALAR", "componentType": 5123, "count": 1344, "byteOffset": 0, "min": [0], "max": [1343]}, {"bufferView": 3, "type": "VEC3", "componentType": 5126, "count": 1344, "byteOffset": 0, "min": [-1.9748164415359497, -1.208469033241272, -1.1508644819259644], "max": [1.9748164415359497, 1.208469033241272, 1.1508644819259644]}, {"bufferView": 3, "type": "VEC3", "componentType": 5126, "count": 1344, "byteOffset": 12, "min": [-1.0, -1.0, -1.0], "max": [1.0, 1.0, 1.0]}, {"bufferView": 3, "type": "VEC2", "componentType": 5126, "count": 1344, "byteOffset": 24, "min": [0.23995999991893768, 0.3155139684677124], "max": [0.9199889898300171, 0.761572003364563]}, {"bufferView": 4, "type": "SCALAR", "componentType": 5123, "count": 3672, "byteOffset": 0, "min": [0], "max": [3671]}, {"bufferView": 5, "type": "VEC3", "componentType": 5126, "count": 3672, "byteOffset": 0, "min": [-4.5960164070129395, -4.8911213874816895, -1.0566779375076294], "max": [4.5960164070129395, 4.8911213874816895, 1.0566779375076294]}, {"bufferView": 5, "type": "VEC3", "componentType": 5126, "count": 3672, "byteOffset": 12, "min": [-0.9993785619735718, -1.0, -0.035251226276159286], "max": [0.9993784427642822, 1.0, 0.9999131560325623]}, {"bufferView": 5, "type": "VEC2", "componentType": 5126, "count": 3672, "byteOffset": 24, "min": [0.00558000011369586, 0.13201400637626648], "max": [0.9276520013809204, 0.9002139568328857]}, {"bufferView": 6, "type": "SCALAR", "componentType": 5123, "count": 864, "byteOffset": 0, "min": [0], "max": [863]}, {"bufferView": 7, "type": "VEC3", "componentType": 5126, "count": 864, "byteOffset": 0, "min": [-2.3016674518585205, -2.3016669750213623, -1.48915696144104], "max": [2.3016674518585205, 2.3016669750213623, 1.48915696144104]}, {"bufferView": 7, "type": "VEC3", "componentType": 5126, "count": 864, "byteOffset": 12, "min": [-0.9977529048919678, -0.9977529048919678, 0.0], "max": [0.9977529048919678, 0.9977529048919678, 1.0]}, {"bufferView": 7, "type": "VEC2", "componentType": 5126, "count": 864, "byteOffset": 24, "min": [0.25112101435661316, 0.7026410102844238], "max": [0.7407850027084351, 0.9369939565658569]}, {"bufferView": 8, "type": "SCALAR", "componentType": 5123, "count": 864, "byteOffset": 0, "min": [0], "max": [863]}, {"bufferView": 9, "type": "VEC3", "componentType": 5126, "count": 864, "byteOffset": 0, "min": [-2.2876274585723877, -2.2858495712280273, -1.4806065559387207], "max": [2.2876274585723877, 2.2858495712280273, 1.4806065559387207]}, {"bufferView": 9, "type": "VEC3", "componentType": 5126, "count": 864, "byteOffset": 12, "min": [-0.9977518320083618, -0.9977529048919678, -0.001437547616660595], "max": [0.9977518320083618, 0.9977529048919678, 0.9999990463256836]}, {"bufferView": 9, "type": "VEC2", "componentType": 5126, "count": 864, "byteOffset": 24, "min": [0.04464399814605713, 0.5547609329223633], "max": [0.9347289800643921, 0.6879220008850098]}, {"bufferView": 10, "type": "SCALAR", "componentType": 5123, "count": 72, "byteOffset": 0, "min": [0], "max": [71]}, {"bufferView": 11, "type": "VEC3", "componentType": 5126, "count": 72, "byteOffset": 0, "min": [-16.08705711364746, -0.4336014986038208, 4.832116603851318], "max": [15.759237289428711, 28.62942123413086, 4.832116603851318]}, {"bufferView": 11, "type": "VEC3", "componentType": 5126, "count": 72, "byteOffset": 12, "min": [0.0, 0.0, 1.0], "max": [0.0, 0.0, 1.0]}, {"bufferView": 11, "type": "VEC2", "componentType": 5126, "count": 72, "byteOffset": 24, "min": [0.00016276045062113553, 0.0001627604360692203], "max": [0.9996747374534607, 0.9565204381942749]}, {"bufferView": 12, "type": "SCALAR", "componentType": 5123, "count": 8064, "byteOffset": 0, "min": [0], "max": [8063]}, {"bufferView": 13, "type": "VEC3", "componentType": 5126, "count": 8064, "byteOffset": 0, "min": [-16.21771812438965, -0.3840565085411072, 5.4428324699401855], "max": [15.951361656188965, 29.172836303710938, 5.442833423614502]}, {"bufferView": 13, "type": "VEC3", "componentType": 5126, "count": 8064, "byteOffset": 12, "min": [0.0, 0.0, 1.0], "max": [0.0, 0.0, 1.0]}, {"bufferView": 13, "type": "VEC2", "componentType": 5126, "count": 8064, "byteOffset": 24, "min": [0.09658002853393555, 0.12669718265533447], "max": [0.9244551658630371, 0.887336254119873]}, {"bufferView": 14, "type": "SCALAR", "componentType": 5125, "count": 81924, "byteOffset": 0, "min": [0], "max": [81923]}, {"bufferView": 15, "type": "VEC3", "componentType": 5126, "count": 81924, "byteOffset": 0, "min": [-12.51597785949707, -14.690731048583984, -1.7429734468460083], "max": [12.51597785949707, 14.690731048583984, 1.7429734468460083]}, {"bufferView": 15, "type": "VEC3", "componentType": 5126, "count": 81924, "byteOffset": 12, "min": [-1.0, -1.0, -1.0], "max": [1.0, 1.0, 1.0]}, {"bufferView": 15, "type": "VEC2", "componentType": 5126, "count": 81924, "byteOffset": 24, "min": [0.0, 0.02899099886417389], "max": [1.0, 1.0]}, {"bufferView": 16, "type": "SCALAR", "componentType": 5123, "count": 1620, "byteOffset": 0, "min": [0], "max": [1619]}, {"bufferView": 17, "type": "VEC3", "componentType": 5126, "count": 1620, "byteOffset": 0, "min": [12.845691680908203, 19.91836166381836, 5.008821964263916], "max": [14.167405128479004, 21.240070343017578, 6.342377185821533]}, {"bufferView": 17, "type": "VEC3", "componentType": 5126, "count": 1620, "byteOffset": 12, "min": [-1.0, -1.0, 0.0], "max": [1.0, 1.0, 1.0]}, {"bufferView": 17, "type": "VEC2", "componentType": 5126, "count": 1620, "byteOffset": 24, "min": [0.04277300089597702, 0.7284939289093018], "max": [0.4102100133895874, 0.8317400217056274]}, {"bufferView": 18, "type": "SCALAR", "componentType": 5125, "count": 184734, "byteOffset": 0, "min": [0], "max": [184733]}, {"bufferView": 19, "type": "VEC3", "componentType": 5126, "count": 184734, "byteOffset": 0, "min": [-17.568078994750977, -30.441360473632812, -6.342377185821533], "max": [17.568078994750977, 30.441360473632812, 6.00180196762085]}, {"bufferView": 19, "type": "VEC3", "componentType": 5126, "count": 184734, "byteOffset": 12, "min": [-1.0, -1.0, -1.0], "max": [1.0, 1.0, 1.0]}, {"bufferView": 19, "type": "VEC2", "componentType": 5126, "count": 184734, "byteOffset": 24, "min": [0.0, 0.008483000099658966], "max": [1.0, 1.0]}], "buffers": [{"uri": "buffer_0.bin", "byteLength": 45696}, {"uri": "buffer_1.bin", "byteLength": 45696}, {"uri": "buffer_2.bin", "byteLength": 124848}, {"uri": "buffer_3.bin", "byteLength": 29376}, {"uri": "buffer_4.bin", "byteLength": 29376}, {"uri": "buffer_5.bin", "byteLength": 2448}, {"uri": "buffer_6.bin", "byteLength": 274176}, {"uri": "buffer_7.bin", "byteLength": 2949264}, {"uri": "buffer_8.bin", "byteLength": 55080}, {"uri": "buffer_9.bin", "byteLength": 6650424}], "images": [{"uri": "tex_0.webp?v=2", "mimeType": "image/webp"}, {"uri": "tex_1.webp?v=2", "mimeType": "image/webp"}, {"uri": "tex_2.webp?v=2", "mimeType": "image/webp"}], "samplers": [{"magFilter": 9729, "minFilter": 9729, "wrapS": 10497, "wrapT": 10497}, {"magFilter": 9729, "minFilter": 9729, "wrapS": 10497, "wrapT": 10497}, {"magFilter": 9729, "minFilter": 9729, "wrapS": 10497, "wrapT": 10497}], "textures": [{"sampler": 0, "source": 0}, {"sampler": 1, "source": 1}, {"sampler": 2, "source": 2}], "materials": [{"pbrMetallicRoughness": {"baseColorFactor": [0.017389096319675446, 0.017389098182320595, 0.017389096319675446, 1.0], "metallicFactor": 0.0, "roughnessFactor": 0.20000000298023224}, "emissiveFactor": [0.0, 0.0, 0.0], "alphaMode": "OPAQUE", "doubleSided": false, "name": "joystick"}, {"pbrMetallicRoughness": {"baseColorFactor": [0.955104649066925, 0.021203937008976936, 0.02120392397046089, 1.0], "metallicFactor": 0.0, "roughnessFactor": 0.20000000298023224}, "emissiveFactor": [0.0, 0.0, 0.0], "alphaMode": "OPAQUE", "doubleSided": false, "name": "A"}, {"pbrMetallicRoughness": {"baseColorFactor": [0.0033353082835674286, 0.7105664610862732, 0.009634219110012054, 1.0], "metallicFactor": 0.0, "roughnessFactor": 0.20000000298023224}, "emissiveFactor": [0.0, 0.0, 0.0], "alphaMode": "OPAQUE", "doubleSided": false, "name": "B"}, {"pbrMetallicRoughness": {"baseColorFactor": [0.21404114365577698, 0.21404114365577698, 0.21404114365577698, 1.0], "metallicFactor": 0.0, "roughnessFactor": 0.20000000298023224}, "emissiveFactor": [0.0, 0.0, 0.0], "alphaMode": "OPAQUE", "doubleSided": false, "name": "screen"}, {"pbrMetallicRoughness": {"baseColorTexture": {"index": 0}, "baseColorFactor": [1.0, 1.0, 1.0, 1.0], "metallicFactor": 0.0, "roughnessFactor": 0.0}, "emissiveFactor": [0.0, 0.0, 0.0], "alphaMode": "OPAQUE", "doubleSided": false, "name": "glass"}, {"pbrMetallicRoughness": {"baseColorTexture": {"index": 1}, "baseColorFactor": [1.0, 1.0, 1.0, 1.0], "metallicFactor": 0.0, "roughnessFactor": 0.20000000298023224}, "emissiveFactor": [0.0, 0.0, 0.0], "alphaMode": "OPAQUE", "doubleSided": false, "name": "casette"}, {"pbrMetallicRoughness": {"baseColorFactor": [0.5271151661872864, 0.5271151661872864, 0.5271151661872864, 1.0], "metallicFactor": 0.0, "roughnessFactor": 1.0}, "emissiveFactor": [0.0, 0.0, 0.0], "alphaMode": "OPAQUE", "doubleSided": false, "name": "light"}, {"pbrMetallicRoughness": {"baseColorTexture": {"index": 2}, "baseColorFactor": [1.0, 1.0, 1.0, 1.0], "metallicFactor": 0.0, "roughnessFactor": 1.0}, "emissiveFactor": [0.0, 0.0, 0.0], "alphaMode": "OPAQUE", "doubleSided": false, "name": "body"}]}