<svg width="1080" height="1080" viewBox="0 0 1080 1080" fill="currentColor" xmlns="http://www.w3.org/2000/svg">
<path d="M489.056 122.205C503.6 79.9225 563.4 79.9226 577.944 122.205L588.275 152.239C599.382 184.529 640.127 194.572 664.968 171.143L688.073 149.35C720.601 118.67 773.551 146.46 766.78 190.658L761.97 222.053C756.799 255.806 788.21 283.633 821.094 274.432L851.68 265.873C894.74 253.824 928.71 303.037 902.174 339.026L883.325 364.59C863.061 392.074 877.942 431.311 911.335 438.445L942.395 445.081C986.122 454.423 993.33 513.785 953.109 533.32L924.54 547.196C893.824 562.114 888.766 603.773 915.019 625.608L939.438 645.919C973.815 674.512 952.61 730.425 907.917 729.03L876.172 728.04C842.042 726.975 818.203 761.511 831.301 793.046L843.484 822.378C860.636 863.672 815.875 903.326 776.95 881.321L749.302 865.691C719.576 848.887 682.418 868.39 679.361 902.399L676.518 934.032C672.515 978.567 614.454 992.878 590.213 955.305L572.994 928.616C554.482 899.923 512.518 899.923 494.006 928.616L476.788 955.305C452.547 992.878 394.485 978.567 390.482 934.032L387.639 902.399C384.582 868.39 347.424 848.887 317.698 865.691L290.05 881.321C251.125 903.326 206.364 863.672 223.516 822.378L235.699 793.046C248.797 761.511 224.958 726.975 190.828 728.04L159.083 729.03C114.39 730.425 93.1853 674.512 127.562 645.919L151.981 625.608C178.234 603.773 173.176 562.115 142.461 547.196L113.891 533.321C73.6694 513.786 80.8779 454.423 124.605 445.081L155.665 438.445C189.058 431.311 203.939 392.074 183.675 364.59L164.826 339.026C138.29 303.037 172.26 253.824 215.32 265.873L245.906 274.432C278.79 283.633 310.201 255.806 305.03 222.053L300.221 190.658C293.449 146.46 346.398 118.669 378.927 149.35L402.032 171.143C426.873 194.572 467.618 184.529 478.725 152.239L489.056 122.205ZM540 264C387.569 264 264 387.569 264 540C264 692.431 387.569 816 540 816C692.431 816 816 692.431 816 540C816 387.569 692.431 264 540 264ZM540 377.911C629.519 377.911 702.089 450.481 702.089 540C702.089 629.519 629.519 702.089 540 702.089C450.481 702.089 377.911 629.519 377.911 540C377.911 450.481 450.481 377.911 540 377.911Z"/>
</svg>
